<mxfile host="app.diagrams.net" modified="2024-03-11T01:39:15.732Z" agent="Mozilla/5.0 (Windows NT 10.0; Win64; x64) AppleWebKit/537.36 (KHTML, like Gecko) Chrome/122.0.0.0 Safari/537.36" etag="2dHGFxioyCn2xz3il3ii" version="24.0.2" type="github">
  <diagram name="Page-1" id="-yAMdGyhcqX-CA_cCDVx">
    <mxGraphModel dx="1050" dy="557" grid="1" gridSize="10" guides="1" tooltips="1" connect="1" arrows="1" fold="1" page="1" pageScale="1" pageWidth="827" pageHeight="1169" math="0" shadow="0">
      <root>
        <mxCell id="0" />
        <mxCell id="1" parent="0" />
        <mxCell id="9SvmQ70yzCRJ1wpSmqG8-1" value="Equipe technique&lt;div&gt;Collaborateurs&lt;/div&gt;" style="ellipse;whiteSpace=wrap;html=1;fillColor=none;strokeColor=#82b366;shadow=0;textShadow=0;strokeWidth=2;" vertex="1" parent="1">
          <mxGeometry x="190" y="120" width="120" height="80" as="geometry" />
        </mxCell>
        <mxCell id="9SvmQ70yzCRJ1wpSmqG8-2" value="&lt;div&gt;Infrastructure physique&lt;/div&gt;" style="ellipse;whiteSpace=wrap;html=1;fillColor=none;strokeColor=#82b366;shadow=0;textShadow=0;strokeWidth=3;" vertex="1" parent="1">
          <mxGeometry x="440" y="120" width="120" height="80" as="geometry" />
        </mxCell>
        <mxCell id="9SvmQ70yzCRJ1wpSmqG8-3" value="&lt;span style=&quot;color: rgb(13, 13, 13); font-family: Söhne, ui-sans-serif, system-ui, -apple-system, &amp;quot;Segoe UI&amp;quot;, Roboto, Ubuntu, Cantarell, &amp;quot;Noto Sans&amp;quot;, sans-serif, &amp;quot;Helvetica Neue&amp;quot;, Arial, &amp;quot;Apple Color Emoji&amp;quot;, &amp;quot;Segoe UI Emoji&amp;quot;, &amp;quot;Segoe UI Symbol&amp;quot;, &amp;quot;Noto Color Emoji&amp;quot;; text-align: start; white-space-collapse: preserve; background-color: rgb(255, 255, 255);&quot;&gt;&lt;font style=&quot;font-size: 11px;&quot;&gt;À qui rend-il service ?&lt;/font&gt;&lt;/span&gt;" style="rounded=0;whiteSpace=wrap;html=1;" vertex="1" parent="1">
          <mxGeometry x="180" y="90" width="140" height="20" as="geometry" />
        </mxCell>
        <mxCell id="9SvmQ70yzCRJ1wpSmqG8-4" value="&lt;span style=&quot;color: rgb(13, 13, 13); font-family: Söhne, ui-sans-serif, system-ui, -apple-system, &amp;quot;Segoe UI&amp;quot;, Roboto, Ubuntu, Cantarell, &amp;quot;Noto Sans&amp;quot;, sans-serif, &amp;quot;Helvetica Neue&amp;quot;, Arial, &amp;quot;Apple Color Emoji&amp;quot;, &amp;quot;Segoe UI Emoji&amp;quot;, &amp;quot;Segoe UI Symbol&amp;quot;, &amp;quot;Noto Color Emoji&amp;quot;; text-align: start; white-space-collapse: preserve; background-color: rgb(255, 255, 255);&quot;&gt;&lt;font style=&quot;font-size: 11px;&quot;&gt;Sur quoi agit-il ?&lt;/font&gt;&lt;/span&gt;" style="rounded=0;whiteSpace=wrap;html=1;" vertex="1" parent="1">
          <mxGeometry x="432.5" y="90" width="135" height="20" as="geometry" />
        </mxCell>
        <mxCell id="9SvmQ70yzCRJ1wpSmqG8-9" value="&lt;span style=&quot;color: rgb(13, 13, 13); text-align: start; white-space-collapse: preserve; background-color: rgb(255, 255, 255);&quot;&gt;&lt;font face=&quot;Helvetica&quot;&gt;Infrastructure réseau&lt;/font&gt;&lt;/span&gt;" style="ellipse;whiteSpace=wrap;html=1;fillColor=none;strokeColor=#82b366;shadow=0;textShadow=0;strokeWidth=3;" vertex="1" parent="1">
          <mxGeometry x="286.5" y="250" width="146" height="90" as="geometry" />
        </mxCell>
        <mxCell id="9SvmQ70yzCRJ1wpSmqG8-13" value="&lt;span style=&quot;font-family: Söhne, ui-sans-serif, system-ui, -apple-system, &amp;quot;Segoe UI&amp;quot;, Roboto, Ubuntu, Cantarell, &amp;quot;Noto Sans&amp;quot;, sans-serif, &amp;quot;Helvetica Neue&amp;quot;, Arial, &amp;quot;Apple Color Emoji&amp;quot;, &amp;quot;Segoe UI Emoji&amp;quot;, &amp;quot;Segoe UI Symbol&amp;quot;, &amp;quot;Noto Color Emoji&amp;quot;; font-size: 11px; text-align: start; white-space-collapse: preserve; background-color: rgb(255, 255, 255);&quot;&gt;Dans quel but ?&lt;/span&gt;" style="rounded=0;whiteSpace=wrap;html=1;" vertex="1" parent="1">
          <mxGeometry x="190" y="360" width="120" height="20" as="geometry" />
        </mxCell>
        <mxCell id="9SvmQ70yzCRJ1wpSmqG8-17" value="&lt;span style=&quot;color: rgb(13, 13, 13); font-family: Söhne, ui-sans-serif, system-ui, -apple-system, &amp;quot;Segoe UI&amp;quot;, Roboto, Ubuntu, Cantarell, &amp;quot;Noto Sans&amp;quot;, sans-serif, &amp;quot;Helvetica Neue&amp;quot;, Arial, &amp;quot;Apple Color Emoji&amp;quot;, &amp;quot;Segoe UI Emoji&amp;quot;, &amp;quot;Segoe UI Symbol&amp;quot;, &amp;quot;Noto Color Emoji&amp;quot;; text-align: start; white-space-collapse: preserve; background-color: rgb(255, 255, 255);&quot;&gt;&lt;font style=&quot;font-size: 12px;&quot;&gt;d&#39;accélérer et d&#39;améliorer la livraison de logiciels de haute qualité&lt;/font&gt;&lt;/span&gt;" style="rounded=1;whiteSpace=wrap;html=1;glass=0;strokeColor=#82b366;shadow=0;textShadow=0;fillColor=none;strokeWidth=3;" vertex="1" parent="1">
          <mxGeometry x="240" y="390" width="240" height="60" as="geometry" />
        </mxCell>
        <mxCell id="9SvmQ70yzCRJ1wpSmqG8-18" value="" style="shape=requiredInterface;html=1;verticalLabelPosition=bottom;sketch=0;rotation=90;strokeWidth=3;" vertex="1" parent="1">
          <mxGeometry x="348.75" y="101.25" width="62.5" height="260" as="geometry" />
        </mxCell>
        <mxCell id="9SvmQ70yzCRJ1wpSmqG8-19" value="" style="shape=requiredInterface;html=1;verticalLabelPosition=bottom;sketch=0;rotation=0;strokeWidth=3;" vertex="1" parent="1">
          <mxGeometry x="432.5" y="260" width="37.5" height="130" as="geometry" />
        </mxCell>
      </root>
    </mxGraphModel>
  </diagram>
</mxfile>
